<?xml version="1.0" encoding="utf-8"?>
<!-- Generator: Adobe Illustrator 18.1.0, SVG Export Plug-In . SVG Version: 6.00 Build 0)  -->
<svg version="1.1" id="Layer_1" xmlns="http://www.w3.org/2000/svg" xmlns:xlink="http://www.w3.org/1999/xlink" x="0px" y="0px"
	 viewBox="-75 77 48 48" enable-background="new -75 77 48 48" xml:space="preserve">
<g id="Expanded">
	<g>
		<g>
			<path d="M-32,121h-38c-2.8,0-5-2.2-5-5V88c0-2.8,2.2-5,5-5h38c2.8,0,5,2.2,5,5v28C-27,118.8-29.2,121-32,121z M-70,85
				c-1.7,0-3,1.3-3,3v28c0,1.7,1.3,3,3,3h38c1.7,0,3-1.3,3-3V88c0-1.7-1.3-3-3-3H-70z"/>
		</g>
		<g>
			<path d="M-28,93h-46c-0.6,0-1-0.4-1-1s0.4-1,1-1h46c0.6,0,1,0.4,1,1S-27.4,93-28,93z"/>
		</g>
		<g>
			<circle cx="-67" cy="88" r="2"/>
		</g>
		<g>
			<circle cx="-61" cy="88" r="2"/>
		</g>
		<g>
			<circle cx="-55" cy="88" r="2"/>
		</g>
	</g>
</g>
<path id="gear-icon" d="M-38.5,107.7v-3.4l-1.8-0.6c-0.7-0.2-1.3-0.8-1.5-1.5c0,0,0,0,0,0c-0.3-0.7-0.3-1.5,0.1-2.1l0.8-1.7
	l-2.4-2.4l-1.7,0.8c-0.7,0.3-1.4,0.3-2.1,0.1c0,0,0,0,0,0c-0.7-0.3-1.2-0.8-1.5-1.5l-0.6-1.8h-3.4l-0.6,1.8
	c-0.2,0.7-0.8,1.3-1.5,1.5c0,0,0,0,0,0c-0.7,0.3-1.5,0.3-2.1-0.1l-1.7-0.8l-2.4,2.4l0.8,1.7c0.3,0.7,0.3,1.4,0.1,2.1c0,0,0,0,0,0
	c-0.3,0.7-0.8,1.2-1.5,1.5l-1.8,0.6v3.4l1.8,0.6c0.7,0.2,1.3,0.8,1.5,1.5c0,0,0,0,0,0c0.3,0.7,0.3,1.5-0.1,2.1l-0.8,1.7l2.4,2.4
	l1.7-0.8c0.7-0.3,1.4-0.3,2.1-0.1c0,0,0,0,0,0c0.7,0.3,1.2,0.8,1.5,1.5l0.6,1.8h3.4l0.6-1.8c0.2-0.7,0.8-1.3,1.5-1.6c0,0,0,0,0,0
	c0.7-0.3,1.4-0.3,2.1,0.1l1.8,0.8l2.4-2.4l-0.8-1.7c-0.3-0.7-0.3-1.4-0.1-2.1c0,0,0,0,0,0c0.3-0.7,0.8-1.2,1.5-1.5L-38.5,107.7z
	 M-51,110.6c-2.5,0-4.6-2.1-4.6-4.6s2.1-4.6,4.6-4.6c2.5,0,4.6,2.1,4.6,4.6S-48.5,110.6-51,110.6z"/>
</svg>
