<?xml version="1.0" encoding="iso-8859-1"?>
<!-- Generator: Adobe Illustrator 16.0.0, SVG Export Plug-In . SVG Version: 6.00 Build 0)  -->
<!DOCTYPE svg PUBLIC "-//W3C//DTD SVG 1.1//EN" "http://www.w3.org/Graphics/SVG/1.1/DTD/svg11.dtd">
<svg version="1.1" id="Capa_1" xmlns="http://www.w3.org/2000/svg" xmlns:xlink="http://www.w3.org/1999/xlink" x="0px" y="0px"
	 viewBox="0 0 365.304 365.303" style="enable-background:new 0 0 365.304 365.303;"
	 xml:space="preserve">
<g>
	<path d="M246.204,333.352c-1.75-1.101-7.2-2.5-8.7-3.65l-30.75,20.2l-25-25l21.5-34.25c-0.8-1.45-0.649-1.7-1.35-3.25l-39.601-7.05
		l0.15-38.55l28.9-5l-14.4-14.051c-12,9.801-26.7,15.601-42.4,15.601h-0.05h-0.05c-14.851,0-28.75-5.2-40.351-14l0,0l-14.649,14
		h-28.65c-13.2,0-23.55,4.5-31.6,13.85c-23.55,27.2-19.601,85.8-17.75,103.75h249.05L246.204,333.352z M74.904,165.852
		c1.899,16.35,8.75,30.899,18.75,41.55c2.1,2.25,4.3,4.3,6.649,6.15c3,2.399,6.15,4.449,9.5,6.199c7.55,3.9,15.851,6.15,24.7,6.15
		s17.15-2.25,24.7-6.15c3.35-1.75,6.5-3.8,9.5-6.199c2.35-1.9,4.6-3.95,6.7-6.2c9.95-10.65,16.8-25.05,18.7-41.3
		c0.199,0,0.35,0.05,0.55,0.05c10.399,0,18.85-9.7,18.85-21.65c0-7.25-3.1-13.6-7.85-17.55H66.554c-4.75,3.95-7.85,10.3-7.85,17.55
		C58.704,155.452,65.754,164.402,74.904,165.852z M365.304,269.102v-16.65l-34.649-6.25c-1.55-6.45-4.101-12.45-7.45-17.95
		l20.15-28.8l-11.801-11.8l-28.899,20.1c-5.5-3.35-11.55-5.899-17.95-7.399l-6.15-34.6h-16.649l-6.25,34.65
		c-6.45,1.55-12.45,4.1-17.95,7.45l-28.8-20.15l-11.8,11.8l20.1,28.9c-3.35,5.5-5.9,11.55-7.4,17.95l-34.6,6.149v16.65l34.65,6.25
		c1.55,6.45,4.1,12.45,7.449,17.95l-20.199,28.8l11.8,11.8l28.899-20.1c5.5,3.35,11.551,5.899,17.95,7.399l6.15,34.601h16.649
		l6.25-34.65c6.45-1.55,12.45-4.1,17.95-7.45l28.8,20.15l11.801-11.8l-20.101-28.9c3.351-5.5,5.9-11.55,7.4-17.95L365.304,269.102z
		 M270.204,286.501c-14.2,0-25.7-11.5-25.7-25.699c0-14.2,11.5-25.7,25.7-25.7s25.7,11.5,25.7,25.7
		C295.904,275.001,284.404,286.501,270.204,286.501z M108.104,34.152c-20.8,10.6-37.199,31.8-43.399,52.4l-1.4,4.4H51.904v25h12.399
		h17.601h7.399h96.4h7.2h27.399v-1.2v-23.8h-11.199l-1.4-4.4c-6.2-20.6-22.6-41.6-43.4-52.2v47v6.6c0,0.4,0,0.6,0,0.8
		c-0.2,2.2-0.6,4.2-1.6,6.2c-2.601,5-7.8,8.6-13.8,8.6h-3.2h-22c-5.601,0-10.601-3-13.2-7.4c-1.2-1.8-1.8-3.8-2.2-6
		c-0.2-0.8-0.2-1.4-0.2-2.2v-5.6V34.152L108.104,34.152z M123.704,96.952h25c3.6,0,6.6-2,8.2-5c0.8-1.4,1.199-2.8,1.199-4.4v-1.8
		v-7.4v-47.2v-6.8v-2.6c0-1.6-0.399-3-0.8-4.4c-1.8-4.6-6.399-8-11.6-8h-22c-4.8,0-8.8,3.6-9.2,8.2c0,0.4-0.2,0.8-0.2,1.2v5.6v6.8
		v48v7.6v0.8c0,2,0.601,3.8,1.601,5.4C117.704,95.352,120.504,96.952,123.704,96.952z"/>
</g>
</svg>
